<svg width="164" height="47" viewBox="0 0 164 47" fill="none" xmlns="http://www.w3.org/2000/svg">
<path d="M2 36.5721C5.66398 37.8939 9.42572 39.0423 13.1949 40.0915C15.4919 40.7309 19.612 42.3279 22.1823 41.4779C25.1021 40.5124 27.0059 36.109 28.0951 33.8171C31.2051 27.2728 34.4157 20.7821 37.4767 14.2116C39.3003 10.2972 40.9875 6.22731 43.5866 2.65812C45.5558 -0.0461413 45.7259 6.40199 45.794 7.26175C46.3963 14.8655 45.9911 22.589 45.9911 30.2088C45.9911 34.3681 45.9911 42.6866 45.9911 42.6866C45.9911 42.6866 45.8662 40.088 45.5378 38.8295C44.831 36.1205 43.8172 33.2772 42.4435 30.7776C39.8461 26.0518 34.8333 24.7342 29.4747 24.7342C25.3777 24.7342 16.3449 24.8237 18.1222 30.8131C18.8582 33.2935 21.3163 34.7457 23.8773 35.4346C28.6909 36.7293 35.0498 36.129 39.9798 35.7367C42.5052 35.5358 44.9897 35.1349 47.4693 34.6702C47.6245 34.6412 51.1897 33.6287 51.2338 33.6571C51.6834 33.9467 51.699 34.5611 51.9433 35.008C52.8244 36.6193 53.7887 38.2997 55.3333 39.4872C56.0573 40.0437 57.8428 40.8213 58.8416 40.2693C60.7153 39.2336 62.042 36.2115 62.8032 34.5103C63.408 33.1585 63.9431 28.8473 64.104 30.2977C64.383 32.8143 66.0029 35.8202 67.8684 37.7097C69.6253 39.4891 73.5576 40.856 75.082 38.4207C76.2358 36.5775 77.3807 34.7487 77.5457 32.5906C77.5819 32.1177 77.5326 30.6955 77.5654 31.1686C77.6991 33.0983 78.179 34.9994 79.0042 36.7854C79.1349 37.0684 80.7855 41.2177 81.6255 40.3048C85.1351 36.4905 86.1255 29.3042 82.5322 25.3741C80.7853 23.4635 78.4305 22.0611 76.1858 20.6816C71.3321 17.6988 66.3484 14.8128 60.8716 12.843C52.8182 9.94645 43.3408 7.84856 35.6043 12.4697C30.0925 15.7621 28.8654 23.1974 29.4747 28.7157C30.6561 39.4138 40.9622 45.1426 52.1404 44.9973C59.0802 44.9071 69.5623 43.6676 70.8643 36.0744C71.2215 33.9913 71.1118 31.5404 70.4701 29.4978C70.332 29.0583 69.8693 28.669 70.4898 28.378C72.6208 27.3787 75.5956 27.3124 77.9005 27.2049C86.8316 26.7883 95.8182 27.7381 104.725 28.1825C123.636 29.1261 143.709 30.4799 162 25.3741" stroke="white" stroke-width="3" stroke-linecap="round"/>
</svg>
